<svg id="visual" viewBox="0 0 900 600" width="900" height="600" xmlns="http://www.w3.org/2000/svg" xmlns:xlink="http://www.w3.org/1999/xlink" version="1.1"><rect x="0" y="0" width="900" height="600" fill="#001220"></rect><defs><linearGradient id="grad1_0" x1="33.3%" y1="100%" x2="100%" y2="0%"><stop offset="20%" stop-color="#a8a89e" stop-opacity="1"></stop><stop offset="80%" stop-color="#a8a89e" stop-opacity="1"></stop></linearGradient></defs><defs><linearGradient id="grad1_1" x1="33.3%" y1="100%" x2="100%" y2="0%"><stop offset="20%" stop-color="#a8a89e" stop-opacity="1"></stop><stop offset="80%" stop-color="#465a58" stop-opacity="1"></stop></linearGradient></defs><defs><linearGradient id="grad1_2" x1="33.3%" y1="100%" x2="100%" y2="0%"><stop offset="20%" stop-color="#001220" stop-opacity="1"></stop><stop offset="80%" stop-color="#465a58" stop-opacity="1"></stop></linearGradient></defs><defs><linearGradient id="grad2_0" x1="0%" y1="100%" x2="66.7%" y2="0%"><stop offset="20%" stop-color="#a8a89e" stop-opacity="1"></stop><stop offset="80%" stop-color="#a8a89e" stop-opacity="1"></stop></linearGradient></defs><defs><linearGradient id="grad2_1" x1="0%" y1="100%" x2="66.7%" y2="0%"><stop offset="20%" stop-color="#465a58" stop-opacity="1"></stop><stop offset="80%" stop-color="#a8a89e" stop-opacity="1"></stop></linearGradient></defs><defs><linearGradient id="grad2_2" x1="0%" y1="100%" x2="66.7%" y2="0%"><stop offset="20%" stop-color="#465a58" stop-opacity="1"></stop><stop offset="80%" stop-color="#001220" stop-opacity="1"></stop></linearGradient></defs><g transform="translate(900, 600)"><path d="M-513.8 0C-501.6 -92.1 -489.5 -184.2 -445 -256.9C-400.4 -329.6 -323.6 -383 -244 -422.6C-164.4 -462.2 -82.2 -488 0 -513.8L0 0Z" fill="#1e353c"></path><path d="M-342.5 0C-334.4 -61.4 -326.3 -122.8 -296.6 -171.3C-267 -219.8 -215.7 -255.4 -162.7 -281.7C-109.6 -308.1 -54.8 -325.3 0 -342.5L0 0Z" fill="#768177"></path><path d="M-171.3 0C-167.2 -30.7 -163.2 -61.4 -148.3 -85.6C-133.5 -109.9 -107.9 -127.7 -81.3 -140.9C-54.8 -154.1 -27.4 -162.7 0 -171.3L0 0Z" fill="#a8a89e"></path></g><g transform="translate(0, 0)"><path d="M513.8 0C496.8 87.3 479.8 174.6 439.1 253.5C398.4 332.4 334 403 256.9 445C179.8 486.9 89.9 500.4 0 513.8L0 0Z" fill="#1e353c"></path><path d="M342.5 0C331.2 58.2 319.8 116.4 292.7 169C265.6 221.6 222.7 268.6 171.3 296.6C119.8 324.6 59.9 333.6 0 342.5L0 0Z" fill="#768177"></path><path d="M171.3 0C165.6 29.1 159.9 58.2 146.4 84.5C132.8 110.8 111.3 134.3 85.6 148.3C59.9 162.3 30 166.8 0 171.3L0 0Z" fill="#a8a89e"></path></g></svg>