<svg id="visual" viewBox="0 0 900 600" width="900" height="600" xmlns="http://www.w3.org/2000/svg" xmlns:xlink="http://www.w3.org/1999/xlink" version="1.1"><rect x="0" y="0" width="900" height="600" fill="#001122"></rect><g transform="translate(488.5928584927219 341.75043361517135)"><path d="M314.9 -429.1C395.1 -375.2 438.2 -265.8 451 -161.8C463.8 -57.8 446.4 40.8 423.1 145.2C399.8 249.6 370.6 359.8 299.2 380.9C227.7 402 113.8 334 38.1 281.6C-37.6 229.1 -75.2 192.2 -182.2 182.7C-289.2 173.1 -465.6 190.8 -516.2 142.4C-566.8 93.9 -491.7 -20.7 -401.2 -78.2C-310.8 -135.7 -205 -136.1 -135.6 -193.6C-66.1 -251 -33.1 -365.5 42.1 -423.5C117.4 -481.5 234.7 -483.1 314.9 -429.1" fill="#57328d"></path></g></svg>