<svg id="visual" viewBox="0 0 900 600" width="900" height="600" xmlns="http://www.w3.org/2000/svg" xmlns:xlink="http://www.w3.org/1999/xlink" version="1.1"><rect x="0" y="0" width="900" height="600" fill="#FFFFFF"></rect><defs><linearGradient id="grad1_0" x1="33.3%" y1="100%" x2="100%" y2="0%"><stop offset="20%" stop-color="#ffffff" stop-opacity="1"></stop><stop offset="80%" stop-color="#ffffff" stop-opacity="1"></stop></linearGradient></defs><defs><linearGradient id="grad2_0" x1="0%" y1="100%" x2="66.7%" y2="0%"><stop offset="20%" stop-color="#ffffff" stop-opacity="1"></stop><stop offset="80%" stop-color="#ffffff" stop-opacity="1"></stop></linearGradient></defs><g transform="translate(900, 600)"><path d="M-270.4 0C-238.4 -32.7 -206.5 -65.3 -187.9 -108.5C-169.4 -151.7 -164.3 -205.4 -135.2 -234.2C-106.1 -262.9 -53.1 -266.7 0 -270.4L0 0Z" fill="#009473"></path></g><g transform="translate(0, 0)"><path d="M270.4 0C260.6 45.5 250.8 90.9 229.5 132.5C208.2 174.1 175.4 211.8 135.2 234.2C95 256.5 47.5 263.5 0 270.4L0 0Z" fill="#009473"></path></g></svg>