<svg id="visual" viewBox="0 0 900 600" width="900" height="600" xmlns="http://www.w3.org/2000/svg" xmlns:xlink="http://www.w3.org/1999/xlink" version="1.1"><rect x="0" y="0" width="900" height="600" fill="#001220"></rect><defs><linearGradient id="grad1_0" x1="33.3%" y1="100%" x2="100%" y2="0%"><stop offset="20%" stop-color="#001220" stop-opacity="1"></stop><stop offset="80%" stop-color="#001220" stop-opacity="1"></stop></linearGradient></defs><defs><linearGradient id="grad2_0" x1="0%" y1="100%" x2="66.7%" y2="0%"><stop offset="20%" stop-color="#001220" stop-opacity="1"></stop><stop offset="80%" stop-color="#001220" stop-opacity="1"></stop></linearGradient></defs><g transform="translate(900, 600)"><path d="M-297.5 0C-280 -46.1 -262.5 -92.3 -239.9 -138.5C-217.3 -184.7 -189.6 -231.1 -148.7 -257.6C-107.9 -284.1 -53.9 -290.8 0 -297.5L0 0Z" fill="#009473"></path></g><g transform="translate(0, 0)"><path d="M297.5 0C289.6 51.9 281.7 103.7 257.6 148.7C233.5 193.7 193.1 231.8 147.5 255.5C101.9 279.1 50.9 288.3 0 297.5L0 0Z" fill="#009473"></path></g></svg>