<svg id="visual" viewBox="0 0 900 600" width="900" height="600" xmlns="http://www.w3.org/2000/svg" xmlns:xlink="http://www.w3.org/1999/xlink" version="1.1"><g stroke-width="1" stroke-linejoin="bevel"><path d="M397 276L402 227L331 234Z" fill="#0e1b2c" stroke="#0e1b2c"></path><path d="M331 234L328 280L397 276Z" fill="#001122" stroke="#001122"></path><path d="M402 227L405 132L331 234Z" fill="#001122" stroke="#001122"></path><path d="M331 234L236 310L328 280Z" fill="#67687c" stroke="#67687c"></path><path d="M328 280L395 400L397 276Z" fill="#0e1b2c" stroke="#0e1b2c"></path><path d="M207 203L236 310L331 234Z" fill="#838095" stroke="#838095"></path><path d="M397 276L510 206L402 227Z" fill="#272f42" stroke="#272f42"></path><path d="M402 227L510 206L405 132Z" fill="#67687c" stroke="#67687c"></path><path d="M309 400L395 400L328 280Z" fill="#333a4d" stroke="#333a4d"></path><path d="M397 276L534 296L510 206Z" fill="#5a5c70" stroke="#5a5c70"></path><path d="M236 310L309 400L328 280Z" fill="#838095" stroke="#838095"></path><path d="M327 70L207 203L331 234Z" fill="#0e1b2c" stroke="#0e1b2c"></path><path d="M395 400L534 296L397 276Z" fill="#272f42" stroke="#272f42"></path><path d="M415 0L327 70L405 132Z" fill="#333a4d" stroke="#333a4d"></path><path d="M405 132L327 70L331 234Z" fill="#1a2537" stroke="#1a2537"></path><path d="M510 206L464 79L405 132Z" fill="#5a5c70" stroke="#5a5c70"></path><path d="M395 400L482 428L534 296Z" fill="#0e1b2c" stroke="#0e1b2c"></path><path d="M434 481L482 428L395 400Z" fill="#67687c" stroke="#67687c"></path><path d="M616 372L593 280L534 296Z" fill="#838095" stroke="#838095"></path><path d="M534 296L593 280L510 206Z" fill="#4d5065" stroke="#4d5065"></path><path d="M510 206L627 85L464 79Z" fill="#333a4d" stroke="#333a4d"></path><path d="M327 70L210 79L207 203Z" fill="#001122" stroke="#001122"></path><path d="M236 310L232 436L309 400Z" fill="#0e1b2c" stroke="#0e1b2c"></path><path d="M307 488L434 481L395 400Z" fill="#404559" stroke="#404559"></path><path d="M131 381L232 436L236 310Z" fill="#333a4d" stroke="#333a4d"></path><path d="M307 488L395 400L309 400Z" fill="#838095" stroke="#838095"></path><path d="M232 436L307 488L309 400Z" fill="#0e1b2c" stroke="#0e1b2c"></path><path d="M593 280L615 215L510 206Z" fill="#757489" stroke="#757489"></path><path d="M465 0L415 0L464 79Z" fill="#5a5c70" stroke="#5a5c70"></path><path d="M464 79L415 0L405 132Z" fill="#0e1b2c" stroke="#0e1b2c"></path><path d="M327 70L263 0L210 79Z" fill="#0e1b2c" stroke="#0e1b2c"></path><path d="M603 0L465 0L464 79Z" fill="#757489" stroke="#757489"></path><path d="M408 600L487 490L434 481Z" fill="#67687c" stroke="#67687c"></path><path d="M434 481L487 490L482 428Z" fill="#333a4d" stroke="#333a4d"></path><path d="M482 428L616 372L534 296Z" fill="#67687c" stroke="#67687c"></path><path d="M415 0L263 0L327 70Z" fill="#4d5065" stroke="#4d5065"></path><path d="M91 280L236 310L207 203Z" fill="#4d5065" stroke="#4d5065"></path><path d="M91 280L131 381L236 310Z" fill="#838095" stroke="#838095"></path><path d="M232 436L229 488L307 488Z" fill="#404559" stroke="#404559"></path><path d="M602 483L616 372L482 428Z" fill="#272f42" stroke="#272f42"></path><path d="M593 280L660 217L615 215Z" fill="#272f42" stroke="#272f42"></path><path d="M131 381L229 488L232 436Z" fill="#404559" stroke="#404559"></path><path d="M307 488L408 600L434 481Z" fill="#272f42" stroke="#272f42"></path><path d="M87 222L91 280L207 203Z" fill="#001122" stroke="#001122"></path><path d="M106 126L207 203L210 79Z" fill="#4d5065" stroke="#4d5065"></path><path d="M106 126L87 222L207 203Z" fill="#838095" stroke="#838095"></path><path d="M263 0L221 0L210 79Z" fill="#4d5065" stroke="#4d5065"></path><path d="M114 0L106 126L210 79Z" fill="#4d5065" stroke="#4d5065"></path><path d="M710 292L660 217L593 280Z" fill="#404559" stroke="#404559"></path><path d="M615 215L627 85L510 206Z" fill="#838095" stroke="#838095"></path><path d="M662 108L627 85L615 215Z" fill="#272f42" stroke="#272f42"></path><path d="M660 217L662 108L615 215Z" fill="#1a2537" stroke="#1a2537"></path><path d="M487 490L602 483L482 428Z" fill="#1a2537" stroke="#1a2537"></path><path d="M616 372L710 292L593 280Z" fill="#333a4d" stroke="#333a4d"></path><path d="M602 483L663 404L616 372Z" fill="#333a4d" stroke="#333a4d"></path><path d="M660 217L779 215L662 108Z" fill="#404559" stroke="#404559"></path><path d="M731 0L603 0L627 85Z" fill="#1a2537" stroke="#1a2537"></path><path d="M627 85L603 0L464 79Z" fill="#757489" stroke="#757489"></path><path d="M663 404L710 292L616 372Z" fill="#4d5065" stroke="#4d5065"></path><path d="M237 600L330 600L307 488Z" fill="#272f42" stroke="#272f42"></path><path d="M487 490L571 600L602 483Z" fill="#333a4d" stroke="#333a4d"></path><path d="M237 600L307 488L229 488Z" fill="#272f42" stroke="#272f42"></path><path d="M330 600L408 600L307 488Z" fill="#5a5c70" stroke="#5a5c70"></path><path d="M221 0L114 0L210 79Z" fill="#272f42" stroke="#272f42"></path><path d="M0 176L0 272L87 222Z" fill="#757489" stroke="#757489"></path><path d="M91 280L0 389L131 381Z" fill="#757489" stroke="#757489"></path><path d="M123 600L237 600L229 488Z" fill="#5a5c70" stroke="#5a5c70"></path><path d="M87 222L0 272L91 280Z" fill="#001122" stroke="#001122"></path><path d="M0 176L87 222L106 126Z" fill="#67687c" stroke="#67687c"></path><path d="M0 86L0 176L106 126Z" fill="#757489" stroke="#757489"></path><path d="M64 503L229 488L131 381Z" fill="#1a2537" stroke="#1a2537"></path><path d="M408 600L510 600L487 490Z" fill="#757489" stroke="#757489"></path><path d="M602 483L682 480L663 404Z" fill="#404559" stroke="#404559"></path><path d="M770 389L792 283L710 292Z" fill="#0e1b2c" stroke="#0e1b2c"></path><path d="M709 600L682 480L602 483Z" fill="#001122" stroke="#001122"></path><path d="M0 272L0 389L91 280Z" fill="#67687c" stroke="#67687c"></path><path d="M0 389L64 503L131 381Z" fill="#404559" stroke="#404559"></path><path d="M114 0L0 86L106 126Z" fill="#272f42" stroke="#272f42"></path><path d="M510 600L571 600L487 490Z" fill="#5a5c70" stroke="#5a5c70"></path><path d="M792 283L779 215L710 292Z" fill="#1a2537" stroke="#1a2537"></path><path d="M710 292L779 215L660 217Z" fill="#757489" stroke="#757489"></path><path d="M662 108L731 0L627 85Z" fill="#001122" stroke="#001122"></path><path d="M770 389L710 292L663 404Z" fill="#757489" stroke="#757489"></path><path d="M813 535L770 389L682 480Z" fill="#404559" stroke="#404559"></path><path d="M682 480L770 389L663 404Z" fill="#1a2537" stroke="#1a2537"></path><path d="M64 503L123 600L229 488Z" fill="#1a2537" stroke="#1a2537"></path><path d="M804 102L731 0L662 108Z" fill="#272f42" stroke="#272f42"></path><path d="M114 0L0 0L0 86Z" fill="#67687c" stroke="#67687c"></path><path d="M0 389L0 514L64 503Z" fill="#333a4d" stroke="#333a4d"></path><path d="M64 503L0 600L123 600Z" fill="#001122" stroke="#001122"></path><path d="M779 215L804 102L662 108Z" fill="#333a4d" stroke="#333a4d"></path><path d="M900 164L804 102L779 215Z" fill="#838095" stroke="#838095"></path><path d="M571 600L709 600L602 483Z" fill="#5a5c70" stroke="#5a5c70"></path><path d="M0 514L0 600L64 503Z" fill="#757489" stroke="#757489"></path><path d="M900 0L831 0L804 102Z" fill="#4d5065" stroke="#4d5065"></path><path d="M804 102L831 0L731 0Z" fill="#1a2537" stroke="#1a2537"></path><path d="M709 600L813 535L682 480Z" fill="#001122" stroke="#001122"></path><path d="M900 365L900 282L792 283Z" fill="#001122" stroke="#001122"></path><path d="M792 283L900 282L779 215Z" fill="#757489" stroke="#757489"></path><path d="M900 365L792 283L770 389Z" fill="#333a4d" stroke="#333a4d"></path><path d="M900 282L900 164L779 215Z" fill="#404559" stroke="#404559"></path><path d="M900 164L900 137L804 102Z" fill="#001122" stroke="#001122"></path><path d="M900 466L900 365L770 389Z" fill="#757489" stroke="#757489"></path><path d="M813 535L900 466L770 389Z" fill="#1a2537" stroke="#1a2537"></path><path d="M709 600L838 600L813 535Z" fill="#757489" stroke="#757489"></path><path d="M813 535L900 600L900 466Z" fill="#838095" stroke="#838095"></path><path d="M900 137L900 0L804 102Z" fill="#67687c" stroke="#67687c"></path><path d="M838 600L900 600L813 535Z" fill="#272f42" stroke="#272f42"></path></g></svg>