<svg id="visual" viewBox="0 0 900 600" width="900" height="600" xmlns="http://www.w3.org/2000/svg" xmlns:xlink="http://www.w3.org/1999/xlink" version="1.1"><rect x="0" y="0" width="900" height="600" fill="#FFFFFF"></rect><defs><linearGradient id="grad1_0" x1="33.3%" y1="100%" x2="100%" y2="0%"><stop offset="20%" stop-color="#009473" stop-opacity="1"></stop><stop offset="80%" stop-color="#009473" stop-opacity="1"></stop></linearGradient></defs><defs><linearGradient id="grad1_1" x1="33.3%" y1="100%" x2="100%" y2="0%"><stop offset="20%" stop-color="#009473" stop-opacity="1"></stop><stop offset="80%" stop-color="#71b89f" stop-opacity="1"></stop></linearGradient></defs><defs><linearGradient id="grad1_2" x1="33.3%" y1="100%" x2="100%" y2="0%"><stop offset="20%" stop-color="#b9dbce" stop-opacity="1"></stop><stop offset="80%" stop-color="#71b89f" stop-opacity="1"></stop></linearGradient></defs><defs><linearGradient id="grad1_3" x1="33.3%" y1="100%" x2="100%" y2="0%"><stop offset="20%" stop-color="#b9dbce" stop-opacity="1"></stop><stop offset="80%" stop-color="#ffffff" stop-opacity="1"></stop></linearGradient></defs><defs><linearGradient id="grad2_0" x1="0%" y1="100%" x2="66.7%" y2="0%"><stop offset="20%" stop-color="#009473" stop-opacity="1"></stop><stop offset="80%" stop-color="#009473" stop-opacity="1"></stop></linearGradient></defs><defs><linearGradient id="grad2_1" x1="0%" y1="100%" x2="66.7%" y2="0%"><stop offset="20%" stop-color="#71b89f" stop-opacity="1"></stop><stop offset="80%" stop-color="#009473" stop-opacity="1"></stop></linearGradient></defs><defs><linearGradient id="grad2_2" x1="0%" y1="100%" x2="66.7%" y2="0%"><stop offset="20%" stop-color="#71b89f" stop-opacity="1"></stop><stop offset="80%" stop-color="#b9dbce" stop-opacity="1"></stop></linearGradient></defs><defs><linearGradient id="grad2_3" x1="0%" y1="100%" x2="66.7%" y2="0%"><stop offset="20%" stop-color="#ffffff" stop-opacity="1"></stop><stop offset="80%" stop-color="#b9dbce" stop-opacity="1"></stop></linearGradient></defs><g transform="translate(900, 600)"><path d="M-540.8 0C-524.5 -92.8 -508.1 -185.5 -465.1 -268.5C-422 -351.5 -352.4 -424.6 -270.4 -468.4C-188.5 -512.1 -94.2 -526.5 0 -540.8L0 0Z" fill="#dcede6"></path><path d="M-405.6 0C-393.3 -69.6 -381.1 -139.2 -348.8 -201.4C-316.5 -263.6 -264.3 -318.5 -202.8 -351.3C-141.3 -384.1 -70.7 -394.9 0 -405.6L0 0Z" fill="#96cab7"></path><path d="M-270.4 0C-262.2 -46.4 -254 -92.8 -232.5 -134.3C-211 -175.7 -176.2 -212.3 -135.2 -234.2C-94.2 -256.1 -47.1 -263.2 0 -270.4L0 0Z" fill="#49a689"></path><path d="M-135.2 0C-131.1 -23.2 -127 -46.4 -116.3 -67.1C-105.5 -87.9 -88.1 -106.2 -67.6 -117.1C-47.1 -128 -23.6 -131.6 0 -135.2L0 0Z" fill="#009473"></path></g><g transform="translate(0, 0)"><path d="M540.8 0C527.4 95.8 514 191.7 468.4 270.4C422.8 349.1 344.9 410.7 261.5 452.9C178.1 495.1 89 518 0 540.8L0 0Z" fill="#dcede6"></path><path d="M405.6 0C395.6 71.9 385.5 143.8 351.3 202.8C317.1 261.8 258.7 308 196.1 339.7C133.6 371.4 66.8 388.5 0 405.6L0 0Z" fill="#96cab7"></path><path d="M270.4 0C263.7 47.9 257 95.8 234.2 135.2C211.4 174.6 172.5 205.4 130.8 226.5C89 247.6 44.5 259 0 270.4L0 0Z" fill="#49a689"></path><path d="M135.2 0C131.9 24 128.5 47.9 117.1 67.6C105.7 87.3 86.2 102.7 65.4 113.2C44.5 123.8 22.3 129.5 0 135.2L0 0Z" fill="#009473"></path></g></svg>